# xmcd CD database file
#
# Track frame offsets:
#	150
#	2833
#	11470
#	18001
#	25832
#	32935
#	35462
#	39575
#	46288
#	51545
#	60546
#	63723
#	70488
#	88875
#	96228
#	100185
#	111318
#	116991
#	121624
#	123319
#
# Disc length: 1748 seconds
#
# Revision: 0
# Processed by: cddbd v1.5.2PL0 Copyright (c) Steve Scherf et al.
# Submitted via: CDex 1.51
#
DISCID=1406d214
DTITLE=Various Artist - 60 Happy Toddler Tunes [CD2]
DYEAR=2004
DGENRE=Childrens
TTITLE0=Happy Birthday To You
TTITLE1=For He's A Jolly Goog Fellow
TTITLE2=The Alphabet Song
TTITLE3=When The Saints Go Marching In
TTITLE4=Bananas In Pajamas
TTITLE5=Humpty Dumpty
TTITLE6=Jack In The Box
TTITLE7=Little Boy Blue
TTITLE8=Sing A Song Of Sixpence
TTITLE9=O My Darlin', Clementine
TTITLE10=There's A Bear In There
TTITLE11=Ring Around The Rosie
TTITLE12=Puff The Magic Dragon
TTITLE13=Take Me Out To The Ballgame
TTITLE14=Little Red Engine
TTITLE15=How Much Is That Doggie In The Window
TTITLE16=Zip A Dee Do Dah
TTITLE17=Little Bo Peep
TTITLE18=Be Kind To Your Web-Footed Friends
TTITLE19=Lullabye And Goodnight
EXTD=YEAR: 2004
EXTT0=
EXTT1=
EXTT2=
EXTT3=
EXTT4=
EXTT5=
EXTT6=
EXTT7=
EXTT8=
EXTT9=
EXTT10=
EXTT11=
EXTT12=
EXTT13=
EXTT14=
EXTT15=
EXTT16=
EXTT17=
EXTT18=
EXTT19=
PLAYORDER=
